<svg id="MasterELD" xmlns="http://www.w3.org/2000/svg" width="425" height="388" viewBox="0 0 425 388"><defs><style>.cls-1{fill:#faa531;}.cls-2{fill:#fff;}.cls-2,.cls-3{fill-rule:evenodd;}</style></defs><title>mastereld_logo_v02</title><g id="Logo_01" data-name="Logo 01"><path class="cls-1" d="M403.23,496.74c-44.47-24.2-44.47-24.2-92.61-61.92-6.68-6.22-8.56-14.77-4.07-19.21C346.8,375.94,346.8,375.94,399,324a20.62,20.62,0,0,1,29,0c52.24,51.77,52.24,51.77,92.49,91.37,4.49,4.43,2.51,13.08-4.17,19.32-47.95,37.71-47.95,37.71-92.56,62-5.73,2.27-14.7,2.27-20.44,0Z" transform="translate(-193.91 -110.43)"/><path d="M413.45,336.83a4.07,4.07,0,0,1,2.87,1.16c51.52,49.77,51.52,49.77,92.14,87.39,1,.81.66,2.61-.73,3.88-48,38.22-48,38.22-92.21,63.36a5,5,0,0,1-2.07.39,5.6,5.6,0,0,1-2.07-.39c-44-25.06-44-25.06-92.26-63.28-1.39-1.27-1.64-3-.73-3.88C359,387.81,359,387.81,410.56,338a4.1,4.1,0,0,1,2.89-1.16Zm0-8.09h0a12.21,12.21,0,0,0-8.66,3.54c-51.31,50.18-51.31,50.18-91.46,88.44-2.87,2.62-1.71,7.9,2.32,11.62,47.61,37.54,47.61,37.54,91.52,62.06a17,17,0,0,0,6.28,1.13,16.36,16.36,0,0,0,6.28-1.14c43.88-24.57,43.88-24.57,91.47-62.15,4.15-3.82,5.19-9,2.32-11.61-40.11-38.22-40.11-38.22-91.41-88.36a12.26,12.26,0,0,0-8.67-3.53Z" transform="translate(-193.91 -110.43)"/><path class="cls-1" d="M399,284.81c-52.16-51.89-52.16-51.89-92.41-91.56-4.49-4.44-2.61-13,4.07-19.21,48.14-37.72,48.14-37.72,92.61-61.92,5.74-2.26,14.7-2.25,20.44,0,44.61,24.29,44.61,24.29,92.56,62,6.68,6.23,8.67,14.89,4.17,19.31-40.26,39.6-40.26,39.6-92.49,91.37a20.62,20.62,0,0,1-29,0Z" transform="translate(-193.91 -110.43)"/><path d="M413.45,115.84a5,5,0,0,1,2.07.39c44.18,25.14,44.18,25.14,92.21,63.36,1.39,1.27,1.76,3.07.73,3.88-40.62,37.63-40.62,37.63-92.14,87.39a4.15,4.15,0,0,1-5.76,0C359,221,359,221,318.37,183.39a1.94,1.94,0,0,1-.46-1.84,3.41,3.41,0,0,1,1.19-2c48.22-38.22,48.22-38.22,92.26-63.28a5.6,5.6,0,0,1,2.07-.39Zm0-2.52h0a17,17,0,0,0-6.28,1.13C363.26,139,363.26,139,315.64,176.51c-4,3.72-5.2,9-2.32,11.61,40.15,38.26,40.15,38.26,91.46,88.44a12.37,12.37,0,0,0,17.32,0c51.3-50.14,51.3-50.14,91.41-88.36,2.88-2.61,1.84-7.79-2.32-11.61-47.6-37.58-47.6-37.58-91.47-62.15a16.36,16.36,0,0,0-6.28-1.14Z" transform="translate(-193.91 -110.43)"/><path class="cls-1" d="M220.67,293.92C245,249.57,245,249.57,282.85,201.56c6.25-6.66,14.81-8.53,19.24-4,39.67,40.17,39.67,40.17,91.57,92.27a20.53,20.53,0,0,1,0,28.9c-51.87,52.2-51.87,52.2-91.66,92.33-4.34,4.6-13,2.62-19.25-4C245,359.1,245,359.1,220.66,314.55c-2.27-5.73-2.26-14.91,0-20.63Z" transform="translate(-193.91 -110.43)"/><path d="M290.34,208.85a2,2,0,0,1,1.84.46c37.65,40.58,37.65,40.58,87.49,92a4.2,4.2,0,0,1,0,5.79c-49.85,51.48-49.85,51.48-87.57,92.08a1.9,1.9,0,0,1-1.75.58,4,4,0,0,1-2.14-1.31c-38.27-47.94-38.27-47.94-63.45-92.07a6.4,6.4,0,0,1,0-4.36c25.17-43.92,25.17-43.92,63.53-92a3.42,3.42,0,0,1,2-1.19Zm1.11-6h0a11.62,11.62,0,0,0-6.13,3.69C247.63,254.07,247.63,254.07,223,298a18.43,18.43,0,0,0,0,12.58c24.59,43.82,24.59,43.82,62.22,91.33a12.56,12.56,0,0,0,6.23,3.81,5.33,5.33,0,0,0,5.41-1.5c38.31-40.1,38.31-40.1,88.55-91.35a12.36,12.36,0,0,0,0-17.33c-50.2-51.24-50.2-51.24-88.45-91.31a5.77,5.77,0,0,0-5.5-1.38Z" transform="translate(-193.91 -110.43)"/><path class="cls-1" d="M432.94,289.79c51.93-52.07,51.93-52.07,91.62-92.22,4.44-4.48,13.11-2.49,19.34,4.19,37.73,47.9,37.73,47.9,62,92.46a30.92,30.92,0,0,1,0,20.21c-24.23,44.4-24.23,44.4-62,92.45-6.23,6.67-14.8,8.54-19.25,4.06-39.75-40.18-39.75-40.18-91.72-92.28a20.5,20.5,0,0,1,0-28.88Z" transform="translate(-193.91 -110.43)"/><path d="M536.31,208.93a4,4,0,0,1,2.14,1.31c38.24,48,38.24,48,63.38,92.12a5.29,5.29,0,0,1,0,4c-25.1,44-25.1,44-63.39,92.1a3.9,3.9,0,0,1-2,1.19,2,2,0,0,1-1.85-.46c-37.69-40.66-37.69-40.66-87.62-92a4.15,4.15,0,0,1,0-5.75c49.92-51.34,49.92-51.34,87.54-92a2.41,2.41,0,0,1,1.84-.46Zm-1.1-6h0a5.3,5.3,0,0,0-5.4,1.5c-38.31,40-38.31,40-88.61,91.14a12.31,12.31,0,0,0,0,17.3c50.32,51.15,50.32,51.15,88.6,91.3a5.79,5.79,0,0,0,5.51,1.38,11.6,11.6,0,0,0,6.13-3.69c37.6-47.53,37.6-47.53,62.17-91.36a17.79,17.79,0,0,0,0-12.35C579,254.33,579,254.33,541.43,206.78A12.57,12.57,0,0,0,535.2,203Z" transform="translate(-193.91 -110.43)"/><path d="M377.44,196.5c-2,1.51-4.94,1.44-6.43-.2s-1.09-4.11.93-5.61a70.49,70.49,0,0,1,83,0c2,1.5,2.44,4,.92,5.61s-4.44,1.7-6.44.19a60.93,60.93,0,0,0-72,0Z" transform="translate(-193.91 -110.43)"/><path d="M360.05,181.53c-2,1.51-4.73,1.61-6.14.23s-.86-3.7,1-5.12a97.48,97.48,0,0,1,117.08,0c1.94,1.48,2.38,3.77,1.08,5.17s-4.18,1.27-6.15-.25a88.55,88.55,0,0,0-106.83-.07Z" transform="translate(-193.91 -110.43)"/><path d="M396.46,213.71a5,5,0,0,1-6.71-.89,4.15,4.15,0,0,1,1.25-6,41.56,41.56,0,0,1,44.87,0,4.12,4.12,0,0,1,1.32,6.05,5.06,5.06,0,0,1-6.72.88,31.42,31.42,0,0,0-34,0Z" transform="translate(-193.91 -110.43)"/><path d="M372,419c-2-1.5-2.48-4-1-5.6s4.44-1.7,6.46-.18a60.88,60.88,0,0,0,71.82,0c2.13-1.55,5-1.45,6.47.17s1.08,4.1-1,5.6A70.45,70.45,0,0,1,372,419Z" transform="translate(-193.91 -110.43)"/><path d="M355,432.93c-2-1.48-2.41-3.77-1-5.11s4.18-1.26,6.16.25a88.53,88.53,0,0,0,106.6-.07c2-1.51,4.75-1.63,6.16-.26s1,3.62-1,5.11a97.54,97.54,0,0,1-116.94.09Z" transform="translate(-193.91 -110.43)"/><path d="M391.1,402.93c-2.25-1.43-2.88-4.14-1.38-6a5.15,5.15,0,0,1,6.76-.87,31.42,31.42,0,0,0,34,0,5.17,5.17,0,0,1,6.77.86,4.17,4.17,0,0,1-1.36,6,41.5,41.5,0,0,1-44.74,0Z" transform="translate(-193.91 -110.43)"/><path class="cls-2" d="M618.91,313.29c0,16.43-94.59,41.39-211.28,55.76s-211.28,12.69-211.28-3.73V295.93c25.71,8.36,106.79,5.85,202.85-7.44,103-14.24,188.71-36.1,207.51-51.93l12.2-1.5v78.23Z" transform="translate(-193.91 -110.43)"/><path class="cls-3" d="M549.45,343.41c-37.06,11.4-92.57,22.64-154.57,30.39-111.26,13.91-201.24,11.31-201-5.8.11-7.26,16.45-16,43.72-24.65-15.42,6.27-24.22,12.36-24.31,17.7-.29,17.24,90,20.19,201.68,6.59,51.56-6.28,98.65-15,134.45-24.24Z" transform="translate(-193.91 -110.43)"/><path d="M261.57,350.31a2.34,2.34,0,0,1-.77,1.87,9.5,9.5,0,0,1-1.68,1.16q-.91.5-1.68,1a1.49,1.49,0,0,0-.77,1.29A1.87,1.87,0,0,0,257,357a1.39,1.39,0,0,0,1,.33l10.52-.13a1.42,1.42,0,0,0,1-.35,1.9,1.9,0,0,0,.37-1.37,1.44,1.44,0,0,0-.77-1.28q-.77-.48-1.68-1a9.15,9.15,0,0,1-1.68-1.12,2.28,2.28,0,0,1-.77-1.85V339.42l-3.47-10.69v21.59Zm-4.89-33a.91.91,0,0,0,.68,1q.68.19,1.59.38a7.2,7.2,0,0,1,1.79.63,2.9,2.9,0,0,1,1.34,1.75L274,357.12h1.14l8.76-24.32v-9.08l-3.7,9.75-6-18.14-15.46.19a2.77,2.77,0,0,0-1.39.36,1.53,1.53,0,0,0-.6,1.43Zm29.9,34.06a2.16,2.16,0,0,1-.43,1.49,3.38,3.38,0,0,1-.94.73,6.55,6.55,0,0,0-.94.58,1.31,1.31,0,0,0-.43,1.12,1.69,1.69,0,0,0,.43,1.37,1.45,1.45,0,0,0,.94.33l16.66-.21a1.48,1.48,0,0,0,.94-.35,1.73,1.73,0,0,0,.43-1.38,1.28,1.28,0,0,0-.43-1.11,5.8,5.8,0,0,0-1-.56,3.12,3.12,0,0,1-1-.7,2.12,2.12,0,0,1-.43-1.48V320.59a2.16,2.16,0,0,1,.43-1.49,3.25,3.25,0,0,1,1-.73,7.8,7.8,0,0,0,1-.55,1.23,1.23,0,0,0,.43-1.09,1.78,1.78,0,0,0-.43-1.42,1.45,1.45,0,0,0-.94-.33l-15.29.19v36.2Z" transform="translate(-193.91 -110.43)"/><path d="M311.49,338.75a4.65,4.65,0,0,0,2.77-1,3.3,3.3,0,0,0,1.11-2.69,6.21,6.21,0,0,1,.14-1.41,2.61,2.61,0,0,1,.54-1.09,3.7,3.7,0,0,1,1.11-.87,10.53,10.53,0,0,1,1.86-.74v-2.57a21.58,21.58,0,0,0-5.45.92,11.75,11.75,0,0,0-3.51,1.75,6.06,6.06,0,0,0-1.86,2.19,5.38,5.38,0,0,0-.54,2.26,3.35,3.35,0,0,0,.4,1.75,2.73,2.73,0,0,0,1,1,3.77,3.77,0,0,0,1.26.44,5.49,5.49,0,0,0,1.17.07Zm17.7,16.93a9.67,9.67,0,0,0,3.08-.7,12,12,0,0,0,2.65-1.47,8.15,8.15,0,0,0,1.86-1.85,3.21,3.21,0,0,0,.69-1.78,1.46,1.46,0,0,0-.4-1.12,1.13,1.13,0,0,0-.86-.35,1.26,1.26,0,0,0-.77.36l-.77.7q-.4.37-.83.71a1.57,1.57,0,0,1-.88.37,2.16,2.16,0,0,1-.83-.27q-.6-.28-.6-1.42V333.67a4.65,4.65,0,0,0-.83-2.83,5.35,5.35,0,0,0-2.2-1.73,10.93,10.93,0,0,0-3.11-.81,19.85,19.85,0,0,0-3.57-.1v23.18a3.08,3.08,0,0,0,.63,1.88,5.07,5.07,0,0,0,1.66,1.41,8.1,8.1,0,0,0,2.37.83,10.75,10.75,0,0,0,2.71.18Zm-23-7.43a7.68,7.68,0,0,0,3.14,6.49,8.59,8.59,0,0,0,3.05,1.42,11.14,11.14,0,0,0,3.34.32,10.26,10.26,0,0,0,2.26-.39,6.43,6.43,0,0,0,1.91-.88v-1.26l-1.51-.28a5.24,5.24,0,0,1-1.37-.46,2.77,2.77,0,0,1-1-.8,2,2,0,0,1-.37-1.23v-6.51a2.36,2.36,0,0,1,1.08-2.09,19.72,19.72,0,0,1,2.28-1.31v-1.94a6.07,6.07,0,0,0-2.46-.25,15.59,15.59,0,0,0-3.28.6,11.14,11.14,0,0,0-3.37,1.6,9.64,9.64,0,0,0-2.65,2.81,7.67,7.67,0,0,0-1.09,4.18Z" transform="translate(-193.91 -110.43)"/><path d="M340.27,335.42a4.82,4.82,0,0,0,1.31,3.52,10.31,10.31,0,0,0,3.29,2.21,27,27,0,0,0,4.29,1.44q2.31.58,4.29,1.19a13.64,13.64,0,0,1,3.29,1.44,2.47,2.47,0,0,1,1.31,2.15,3.18,3.18,0,0,1-.46,1.78,3.41,3.41,0,0,1-1.14,1.09,6.83,6.83,0,0,1-1.46.64,12.24,12.24,0,0,1-1.34.34v2.57l.74-.06a10.74,10.74,0,0,0,2.6-.7,12.78,12.78,0,0,0,3.32-1.87,12.6,12.6,0,0,0,2.86-3.12,8,8,0,0,0,1.23-4.5,5.29,5.29,0,0,0-1.23-3.69,8.89,8.89,0,0,0-3.12-2.17,19.85,19.85,0,0,0-4-1.24q-2.14-.42-4-.89a11.74,11.74,0,0,1-3.11-1.2,2.35,2.35,0,0,1-1.23-2.15,3.68,3.68,0,0,1,3.26-3.53v-2.57l-1.54.13a11.71,11.71,0,0,0-2.71.63,10.47,10.47,0,0,0-3,1.62,9.15,9.15,0,0,0-2.4,2.8,8.3,8.3,0,0,0-1,4.16Zm21.95-3.08v-6.45l-2.06.17a2,2,0,0,1-.11.84.37.37,0,0,1-.29.22,1.46,1.46,0,0,1-.63-.23,8,8,0,0,0-1.2-.5,13.32,13.32,0,0,0-1.8-.45,9.42,9.42,0,0,0-2.49-.08v2.57q.57.07,1.51.25a7.25,7.25,0,0,1,1.91.67,7.15,7.15,0,0,1,1.86,1.39,6.75,6.75,0,0,1,1.46,2.45l1.83-.84ZM341.7,344.21l-1.83,1.12v8.85l2.8-.23a5.72,5.72,0,0,1,.14-1.3q.14-.61.6-.65a2.88,2.88,0,0,1,1.2.53,8.19,8.19,0,0,0,1.06.54q.66.29,1.4.54a9.51,9.51,0,0,0,1.57.38,6.58,6.58,0,0,0,1.57.07l.69-.06v-2.57a9,9,0,0,1-1.89-.24,8.83,8.83,0,0,1-2.46-1A10.88,10.88,0,0,1,344,348a12.57,12.57,0,0,1-2.26-3.84Z" transform="translate(-193.91 -110.43)"/><path d="M384.52,350.78a5.25,5.25,0,0,0,1.92-.6,16.56,16.56,0,0,0,1.8-1.1,7.18,7.18,0,0,0,1.26-1.1,14.9,14.9,0,0,0,1-1.22,6.2,6.2,0,0,0,.66-1.1,2.12,2.12,0,0,0,.23-.74,1.06,1.06,0,0,0-.51-.92,1.6,1.6,0,0,0-1.09-.29q-.51.05-.63.35a6.6,6.6,0,0,1-1.11,1.74,9.73,9.73,0,0,1-1.32,1.22,7.65,7.65,0,0,1-1.26.79,5.86,5.86,0,0,1-.94.38v2.57Zm0-25.81a2.21,2.21,0,0,0,.17,1.07.55.55,0,0,0,.57.23l5.49-.58a.64.64,0,0,0,.51-.34,2.46,2.46,0,0,0,.17-1.1,2.21,2.21,0,0,0-.17-1.07.5.5,0,0,0-.51-.23l-5.49.58a.69.69,0,0,0-.57.35,2.45,2.45,0,0,0-.17,1.1Zm-14.18,2.86v14.5a8.39,8.39,0,0,0,1,4.32,8.18,8.18,0,0,0,2.69,2.8,10.45,10.45,0,0,0,3.69,1.44,13.74,13.74,0,0,0,4,.18V308.53l-2.34.25a9.72,9.72,0,0,1-1,3.36,11.51,11.51,0,0,1-2.06,2.93,13.53,13.53,0,0,1-2.83,2.24,10.48,10.48,0,0,1-3.23,1.28v6.51l-2.52.27a.64.64,0,0,0-.51.34,2.46,2.46,0,0,0-.17,1.1,2.21,2.21,0,0,0,.17,1.07.5.5,0,0,0,.51.23l2.52-.26Z" transform="translate(-193.91 -110.43)"/><path d="M410.32,322.42a7.63,7.63,0,0,1,.89-.05,3.32,3.32,0,0,1,.92.11,2,2,0,0,1,.72.34.74.74,0,0,1,.29.62V331a.82.82,0,0,1-.46.69,4.6,4.6,0,0,1-1.12.48,11.14,11.14,0,0,1-1.37.32l-1.23.18v1.88l13-1.64a23.49,23.49,0,0,0-.74-6.3,9.46,9.46,0,0,0-2.86-4.55,10,10,0,0,0-3.37-1.94,10.35,10.35,0,0,0-4.63-.3v2.57Zm-5.55,3.5a3.27,3.27,0,0,1,.72-2.06,3,3,0,0,1,2.09-1.09V320.2q-.46.06-1.63.26a13.94,13.94,0,0,0-2.66.79,18,18,0,0,0-3.09,1.62,12.09,12.09,0,0,0-2.95,2.74,14.26,14.26,0,0,0-2.2,4.22,18.58,18.58,0,0,0-.86,6,16.63,16.63,0,0,0,.86,5.77,10.33,10.33,0,0,0,2.2,3.66,8.76,8.76,0,0,0,2.95,2,12.06,12.06,0,0,0,3.09.84,15.23,15.23,0,0,0,2.66.12q1.17-.06,1.63-.12v-2.57a2.34,2.34,0,0,1-2.09-.56,2.59,2.59,0,0,1-.72-1.88V325.92Zm5.55,21.85a8.87,8.87,0,0,0,2.2-.65,17.61,17.61,0,0,0,2.26-1.11,11.87,11.87,0,0,0,1.89-1.41,14.55,14.55,0,0,0,1.6-1.69,13.54,13.54,0,0,0,1.09-1.54,2.37,2.37,0,0,0,.4-1,1.26,1.26,0,0,0-.43-1,1.29,1.29,0,0,0-1.06-.29.78.78,0,0,0-.63.36A14.61,14.61,0,0,1,415.7,342a15.61,15.61,0,0,1-1.72,1.53,10.57,10.57,0,0,1-1.94,1.1,6.71,6.71,0,0,1-1.72.56v2.57Z" transform="translate(-193.91 -110.43)"/><path d="M442.92,320.93a1.63,1.63,0,0,1-.26,1q-.26.35-.57.74a4.78,4.78,0,0,0-.57.91,3.46,3.46,0,0,0-.26,1.49,2.56,2.56,0,0,0,1.29,2.53,4.9,4.9,0,0,0,2.95.41,6.06,6.06,0,0,0,4-2.27A7.09,7.09,0,0,0,451,321.1a6.21,6.21,0,0,0-.49-2.53,4.74,4.74,0,0,0-1.32-1.78,4.91,4.91,0,0,0-1.89-1,5.68,5.68,0,0,0-2.26-.11q-1.94.27-4,.74v2.74a1.73,1.73,0,0,1,1.23.31,1.59,1.59,0,0,1,.6,1.43ZM440.29,343a1.29,1.29,0,0,0,.77-.39,1.1,1.1,0,0,0,.31-.79q0-.69-.43-.8t-1-.21a2.31,2.31,0,0,1-1-.41,1.6,1.6,0,0,1-.43-1.34V316.81l-13.21,1.86a1.17,1.17,0,0,0-.74.39,1.15,1.15,0,0,0-.29.78q0,.63.43.77a7.11,7.11,0,0,0,1,.23,2.31,2.31,0,0,1,1,.41,1.6,1.6,0,0,1,.43,1.34v18.1a2,2,0,0,1-.43,1.46,3.28,3.28,0,0,1-1,.68q-.54.25-1,.48a1,1,0,0,0-.43.92.87.87,0,0,0,.29.7.9.9,0,0,0,.74.18L440.29,343Z" transform="translate(-193.91 -110.43)"/><path d="M456.07,335.05a2.42,2.42,0,0,1-.43,1.55,4.06,4.06,0,0,1-1,.87,7.47,7.47,0,0,0-1,.73,1.51,1.51,0,0,0-.43,1.18q0,1,.43,1.3a1.31,1.31,0,0,0,.94.19L470,338.37v-41.8l-15.37,2.51a1.76,1.76,0,0,0-.94.5,2.05,2.05,0,0,0-.43,1.5q0,.8.43,1a6.33,6.33,0,0,0,1,.38,2.59,2.59,0,0,1,1,.56,1.86,1.86,0,0,1,.43,1.41v30.61Zm16.69-16.48a3.65,3.65,0,0,1,1.14,0,3.74,3.74,0,0,1,1.2.4,2.45,2.45,0,0,1,1,1.29q.34.89.63,1.81a6,6,0,0,0,.71,1.57,1.28,1.28,0,0,0,1.4.49q.86-.14,1.06-.63a3.46,3.46,0,0,0,.2-1.29V309.49a3.14,3.14,0,0,0-.2-1.28q-.2-.42-1.06-.28a1.66,1.66,0,0,0-1.23.91,11.13,11.13,0,0,0-.77,1.81q-.34,1-.71,2a4.08,4.08,0,0,1-1.06,1.63,5.46,5.46,0,0,1-1.2.8,4.29,4.29,0,0,1-1.14.39v3.08Zm6.4-17.89a5.78,5.78,0,0,1,1.26,1.82q.46,1,.89,2a11.7,11.7,0,0,0,.92,1.65,2,2,0,0,0,1.29.87,3.15,3.15,0,0,0,1,0l.83-.11V294.08l-12.57,2.05v2.8a21.53,21.53,0,0,1,3.54.16,5.11,5.11,0,0,1,2.86,1.59Zm0,30.61a8,8,0,0,1-2.86,2.52,26.18,26.18,0,0,1-3.54,1.32v2.8l12.57-2.05V323l-.83.16a3.77,3.77,0,0,0-1,.36,3.09,3.09,0,0,0-1.29,1.29,17.41,17.41,0,0,0-.92,1.95q-.43,1.07-.89,2.26a8.91,8.91,0,0,1-1.26,2.23Z" transform="translate(-193.91 -110.43)"/><path d="M505,295.84a2.48,2.48,0,0,1,.43-1.57,4.43,4.43,0,0,1,.94-.9,11.42,11.42,0,0,0,.94-.73,1.46,1.46,0,0,0,.43-1.17q0-1.08-.43-1.34a1.29,1.29,0,0,0-.94-.16l-16.72,3.26a1.82,1.82,0,0,0-.94.53,2.1,2.1,0,0,0-.43,1.51q0,.8.43,1a6.13,6.13,0,0,0,1,.35,2.48,2.48,0,0,1,1,.52,1.82,1.82,0,0,1,.43,1.4v30.61a2.48,2.48,0,0,1-.43,1.57,4.25,4.25,0,0,1-1,.9,7.76,7.76,0,0,0-1,.76,1.56,1.56,0,0,0-.43,1.2q0,1,.43,1.29a1.29,1.29,0,0,0,.94.16L505,332v-36.2Zm9.13,28.83a8.34,8.34,0,0,1-2.85,2.61,27,27,0,0,1-3.54,1.43v2.8l12.55-2.45V316.21l-.83.19a3.86,3.86,0,0,0-1,.39,3.24,3.24,0,0,0-1.28,1.34,18.2,18.2,0,0,0-.91,2q-.43,1.08-.88,2.29a9.29,9.29,0,0,1-1.26,2.27Z" transform="translate(-193.91 -110.43)"/><path d="M525.27,322.36a2.56,2.56,0,0,1-.43,1.58,4.49,4.49,0,0,1-1,.94,8.15,8.15,0,0,0-1,.8,1.61,1.61,0,0,0-.43,1.21q0,1,.43,1.27a1.25,1.25,0,0,0,.94.12l15.29-3.57v-41.8l-15.29,3.57a1.9,1.9,0,0,0-.94.56,2.17,2.17,0,0,0-.43,1.53q0,.8.43,1a5.92,5.92,0,0,0,1,.32,2.35,2.35,0,0,1,1,.49,1.76,1.76,0,0,1,.43,1.38v30.61Zm19.39-34v28.32a3.39,3.39,0,0,1-.82,2.16,3.52,3.52,0,0,1-2,1.29v3.94l1.14-.27q.4-.09,1.73-.58a16,16,0,0,0,3-1.57,24.85,24.85,0,0,0,3.61-2.87,20.22,20.22,0,0,0,3.5-4.47,26.1,26.1,0,0,0,2.62-6.41,32.73,32.73,0,0,0,1-8.63,27.56,27.56,0,0,0-1-8.16,15.44,15.44,0,0,0-2.62-5.18,10.16,10.16,0,0,0-3.5-2.84,14,14,0,0,0-3.61-1.18,11.38,11.38,0,0,0-3-.15A17.32,17.32,0,0,0,543,282l-1.14.27v3.94a2.23,2.23,0,0,1,2,.37,2.12,2.12,0,0,1,.82,1.78Z" transform="translate(-193.91 -110.43)"/><path class="cls-3" d="M557,218.52l2.83,3.65c24.26-.53,38.91,1.84,39,7.38.32,12.68-75.5,37.12-169.36,54.59l-6.55,1.2c107.54-16.22,191.76-40.14,191.76-55.1C614.76,222.61,592.81,218.71,557,218.52Z" transform="translate(-193.91 -110.43)"/></g></svg>